<svg width="40" height="40" viewBox="0 0 40 40" fill="none" xmlns="http://www.w3.org/2000/svg">
<path d="M38.3784 17.0109C38.235 17.0109 38.0975 16.9539 37.9962 16.8525C37.8948 16.7512 37.8378 16.6137 37.8378 16.4703V14.8974C37.8378 14.754 37.8948 14.6165 37.9962 14.5151C38.0975 14.4138 38.235 14.3568 38.3784 14.3568C38.5217 14.3568 38.6592 14.4138 38.7606 14.5151C38.862 14.6165 38.9189 14.754 38.9189 14.8974V16.4703C38.9189 16.6137 38.862 16.7512 38.7606 16.8525C38.6592 16.9539 38.5217 17.0109 38.3784 17.0109Z" fill="#919191"/>
<path d="M37.2973 38.2703H2.70271C2.27263 38.2703 1.86016 38.0994 1.55605 37.7953C1.25193 37.4912 1.08109 37.0787 1.08109 36.6487V23.6C1.08109 23.1699 1.25193 22.7575 1.55605 22.4533C1.86016 22.1492 2.27263 21.9784 2.70271 21.9784H16.9027V3.35136C16.9027 2.92128 17.0736 2.50881 17.3777 2.2047C17.6818 1.90059 18.0942 1.72974 18.5243 1.72974H37.2973C37.7274 1.72974 38.1398 1.90059 38.444 2.2047C38.7481 2.50881 38.9189 2.92128 38.9189 3.35136V11.1135C38.9189 11.2569 38.862 11.3944 38.7606 11.4957C38.6592 11.5971 38.5217 11.6541 38.3784 11.6541C38.235 11.6541 38.0975 11.5971 37.9962 11.4957C37.8948 11.3944 37.8378 11.2569 37.8378 11.1135V3.35136C37.8378 3.208 37.7809 3.07051 37.6795 2.96914C37.5781 2.86777 37.4407 2.81082 37.2973 2.81082H18.5243C18.381 2.81082 18.2435 2.86777 18.1421 2.96914C18.0407 3.07051 17.9838 3.208 17.9838 3.35136V22.5189C17.9838 22.6623 17.9268 22.7998 17.8255 22.9011C17.7241 23.0025 17.5866 23.0595 17.4432 23.0595H2.70271C2.55935 23.0595 2.42186 23.1164 2.32049 23.2178C2.21912 23.3192 2.16217 23.4566 2.16217 23.6V36.6487C2.16217 36.792 2.21912 36.9295 2.32049 37.0309C2.42186 37.1322 2.55935 37.1892 2.70271 37.1892H37.2973C37.4407 37.1892 37.5781 37.1322 37.6795 37.0309C37.7809 36.9295 37.8378 36.792 37.8378 36.6487V25.6432C37.8378 25.4999 37.8948 25.3624 37.9962 25.261C38.0975 25.1597 38.235 25.1027 38.3784 25.1027C38.5217 25.1027 38.6592 25.1597 38.7606 25.261C38.862 25.3624 38.9189 25.4999 38.9189 25.6432V36.6487C38.9189 37.0787 38.7481 37.4912 38.444 37.7953C38.1398 38.0994 37.7274 38.2703 37.2973 38.2703Z" fill="#919191"/>
<path d="M38.3784 22.4C38.235 22.4 38.0975 22.343 37.9962 22.2417C37.8948 22.1403 37.8378 22.0028 37.8378 21.8594V20.254C37.8378 20.1107 37.8948 19.9732 37.9962 19.8718C38.0975 19.7704 38.235 19.7135 38.3784 19.7135C38.5217 19.7135 38.6592 19.7704 38.7606 19.8718C38.862 19.9732 38.9189 20.1107 38.9189 20.254V21.8594C38.9189 22.0028 38.862 22.1403 38.7606 22.2417C38.6592 22.343 38.5217 22.4 38.3784 22.4Z" fill="#919191"/>
<path d="M27.5675 30.9848H10.76C10.6166 30.9848 10.4791 30.9279 10.3778 30.8265C10.2764 30.7252 10.2195 30.5877 10.2195 30.4443C10.2195 30.3009 10.2764 30.1635 10.3778 30.0621C10.4791 29.9607 10.6166 29.9038 10.76 29.9038H27.027V11.8919C27.027 11.7485 27.084 11.611 27.1853 11.5096C27.2867 11.4083 27.4242 11.3513 27.5675 11.3513C27.7109 11.3513 27.8484 11.4083 27.9498 11.5096C28.0511 11.611 28.1081 11.7485 28.1081 11.8919V30.4443C28.1081 30.5877 28.0511 30.7252 27.9498 30.8265C27.8484 30.9279 27.7109 30.9848 27.5675 30.9848Z" fill="#919191"/>
<path d="M13.8287 34.0541C13.6853 34.0541 13.5478 33.9971 13.4465 33.8957L10.3784 30.8265C10.2771 30.7252 10.2201 30.5877 10.2201 30.4444C10.2201 30.3011 10.2771 30.1636 10.3784 30.0622L13.447 26.9936C13.4972 26.9433 13.5568 26.9035 13.6224 26.8763C13.688 26.8491 13.7583 26.8351 13.8293 26.8351C13.9003 26.8351 13.9706 26.849 14.0362 26.8762C14.1018 26.9033 14.1614 26.9431 14.2116 26.9933C14.2619 27.0435 14.3017 27.1031 14.3289 27.1687C14.3561 27.2342 14.3701 27.3045 14.3701 27.3755C14.3701 27.4465 14.3562 27.5169 14.329 27.5825C14.3019 27.6481 14.2621 27.7077 14.2119 27.7579L11.5249 30.4444L14.2119 33.1314C14.2875 33.2071 14.339 33.3035 14.3598 33.4084C14.3807 33.5134 14.3699 33.6221 14.3288 33.7209C14.2878 33.8197 14.2184 33.9041 14.1293 33.9634C14.0403 34.0227 13.9356 34.0543 13.8287 34.0541Z" fill="#919191"/>
</svg>
